{"accessors" : [{"bufferView" : 0, "byteOffset" : 0, "componentType" : 5123, "count" : 240, "type" : "SCALAR", "max" : [193], "min" : [0]}, {"bufferView" : 1, "byteOffset" : 0, "componentType" : 5126, "count" : 194, "type" : "VEC3", "max" : [0.6954590082168579, 0.6031079888343811, 5.357500076293945], "min" : [-0.6937710046768188, -0.6031079888343811, 4.40749979019165], "name" : "POSITION"}, {"bufferView" : 0, "byteOffset" : 480, "componentType" : 5123, "count" : 60, "type" : "SCALAR", "max" : [49], "min" : [0]}, {"bufferView" : 2, "byteOffset" : 0, "componentType" : 5126, "count" : 50, "type" : "VEC3", "max" : [0.6954590082168579, 0.6031079888343811, 4.40749979019165], "min" : [-0.6937710046768188, -0.6031079888343811, 0.6585000157356262], "name" : "POSITION"}, {"bufferView" : 0, "byteOffset" : 600, "componentType" : 5123, "count" : 48, "type" : "SCALAR", "max" : [37], "min" : [0]}, {"bufferView" : 3, "byteOffset" : 0, "componentType" : 5126, "count" : 38, "type" : "VEC3", "max" : [0.06946100294589996, 0.060309998691082, 0.4000000059604645], "min" : [-0.06946100294589996, -0.12031000107526779, 0.02500000037252903], "name" : "POSITION"}, {"bufferView" : 0, "byteOffset" : 696, "componentType" : 5123, "count" : 168, "type" : "SCALAR", "max" : [140], "min" : [0]}, {"bufferView" : 4, "byteOffset" : 0, "componentType" : 5126, "count" : 141, "type" : "VEC3", "max" : [0.6954659819602966, 0.6895570158958435, 0.6575000286102295], "min" : [-0.6937779784202576, -0.6895570158958435, 0.38749998807907104], "name" : "POSITION"}, {"bufferView" : 0, "byteOffset" : 1032, "componentType" : 5123, "count" : 168, "type" : "SCALAR", "max" : [140], "min" : [0]}, {"bufferView" : 5, "byteOffset" : 0, "componentType" : 5126, "count" : 141, "type" : "VEC3", "max" : [0.6413559913635254, 0.6358420252799988, 0.38749998807907104], "min" : [-0.6396679878234863, -0.6358420252799988, 0.10750000178813934], "name" : "POSITION"}], "asset" : {"generator" : "Aspose.3D 22.12", "version" : "2.0"}, "buffers" : [{"uri" : "data:application/octet-stream;base64,", "byteLength" : 9600}], "bufferViews" : [{"buffer" : 0, "byteOffset" : 0, "byteLength" : 1368, "target" : 34963}, {"buffer" : 0, "byteOffset" : 1372, "byteLength" : 2880, "byteStride" : 12, "target" : 34962}, {"buffer" : 0, "byteOffset" : 4256, "byteLength" : 720, "byteStride" : 12, "target" : 34962}, {"buffer" : 0, "byteOffset" : 4980, "byteLength" : 576, "byteStride" : 12, "target" : 34962}, {"buffer" : 0, "byteOffset" : 5560, "byteLength" : 2016, "byteStride" : 12, "target" : 34962}, {"buffer" : 0, "byteOffset" : 7580, "byteLength" : 2016, "byteStride" : 12, "target" : 34962}], "meshes" : [{"primitives" : [{"attributes" : {"POSITION" : 1}, "indices" : 0, "mode" : 4}], "name" : ""}, {"primitives" : [{"attributes" : {"POSITION" : 3}, "indices" : 2, "mode" : 4}], "name" : ""}, {"primitives" : [{"attributes" : {"POSITION" : 5}, "indices" : 4, "mode" : 4}], "name" : ""}, {"primitives" : [{"attributes" : {"POSITION" : 7}, "indices" : 6, "mode" : 4}], "name" : ""}, {"primitives" : [{"attributes" : {"POSITION" : 9}, "indices" : 8, "mode" : 4}], "name" : ""}], "nodes" : [{"mesh" : 0, "name" : "Corpo_01_(1)"}, {"mesh" : 1, "name" : "Corpo_04_(2)"}, {"mesh" : 2, "name" : "Corpo_04_(1)"}, {"mesh" : 3, "name" : "Corpo_04_(2)*"}, {"mesh" : 4, "name" : "Corpo_04_(1)*"}], "scene" : 0, "scenes" : [{"nodes" : [0, 1, 2, 3, 4]}]}