<?xml version="1.0" encoding="UTF-8"?>
<svg enable-background="new 0 0 122.88 122.881" version="1.1" viewBox="0 0 122.88 122.88" xml:space="preserve" xmlns="http://www.w3.org/2000/svg"><path d="m44.541 97.197v-10.793c0-1.645 1.333-2.977 2.978-2.977h1.438v-18.083h-1.701c-1.645 0-2.979-1.334-2.979-2.979v-11.48c0-1.645 1.334-2.978 2.979-2.978h21.175c2.018 0 3.538 0.855 4.565 2.558 0.735 1.221 1.103 2.849 1.103 4.88v28.082h1.526c1.645 0 2.979 1.332 2.979 2.977v10.793c0 1.645-1.334 2.979-2.979 2.979h-28.106c-1.645 0-2.978-1.334-2.978-2.979zm16.899-91.241c-3.841 0-7.565 0.361-11.169 1.083-3.61 0.722-7.09 1.799-10.439 3.229l2e-3 4e-3c-3.412 1.467-6.585 3.181-9.515 5.147-2.938 1.971-5.661 4.21-8.165 6.724l-0.012 0.011c-2.513 2.504-4.752 5.227-6.724 8.165-1.966 2.93-3.68 6.104-5.147 9.515-0.021 0.048-0.042 0.095-0.065 0.142-1.4 3.304-2.456 6.737-3.168 10.295-0.721 3.604-1.082 7.328-1.082 11.168 0 3.842 0.361 7.564 1.082 11.17 0.723 3.609 1.799 7.09 3.229 10.438h4e-3c1.467 3.41 3.182 6.584 5.147 9.514 1.971 2.938 4.21 5.662 6.724 8.166l0.011 0.012v-2e-3c2.504 2.514 5.227 4.754 8.165 6.725 2.93 1.967 6.104 3.68 9.515 5.146 0.048 0.021 0.095 0.043 0.141 0.066 3.305 1.398 6.737 2.455 10.296 3.168 3.604 0.721 7.328 1.082 11.169 1.082s7.564-0.361 11.169-1.082c3.609-0.723 7.09-1.799 10.438-3.229l-2e-3 -6e-3c3.412-1.467 6.586-3.18 9.516-5.146 2.938-1.971 5.66-4.211 8.164-6.725l0.013-0.01h-1e-3c2.514-2.504 4.753-5.229 6.724-8.166 1.966-2.93 3.681-6.104 5.147-9.514 0.021-0.049 0.043-0.096 0.065-0.143 1.399-3.305 2.456-6.736 3.168-10.295 0.722-3.605 1.083-7.328 1.083-11.17 0-3.84-0.361-7.564-1.083-11.168-0.723-3.61-1.799-7.09-3.229-10.438l-4e-3 1e-3c-1.467-3.412-3.182-6.585-5.147-9.515-1.971-2.938-4.21-5.661-6.724-8.165l-0.011-0.012h-1e-3c-2.504-2.514-5.227-4.752-8.164-6.724-2.93-1.966-6.104-3.681-9.516-5.147-0.048-0.021-0.095-0.043-0.141-0.065-3.305-1.399-6.737-2.456-10.296-3.168-3.602-0.72-7.326-1.081-11.167-1.081zm-12.332-4.757c3.992-0.799 8.104-1.199 12.332-1.199s8.34 0.4 12.332 1.199c3.927 0.786 7.748 1.967 11.461 3.541 0.055 0.02 0.108 0.042 0.163 0.064 3.7 1.592 7.191 3.483 10.469 5.683 3.267 2.192 6.291 4.678 9.066 7.462 2.784 2.775 5.27 5.8 7.462 9.067 2.199 3.276 4.091 6.768 5.683 10.468l-5e-3 2e-3 5e-3 0.01c1.606 3.76 2.809 7.631 3.605 11.612 0.799 3.992 1.198 8.104 1.198 12.332 0 4.229-0.399 8.342-1.198 12.332-0.786 3.928-1.967 7.748-3.541 11.461-0.02 0.055-0.041 0.109-0.064 0.164-1.592 3.699-3.483 7.191-5.683 10.469-2.192 3.266-4.678 6.291-7.462 9.066-2.775 2.783-5.8 5.27-9.066 7.461-3.277 2.199-6.769 4.092-10.469 5.684l-2e-3 -4e-3 -0.011 4e-3c-3.76 1.605-7.631 2.809-11.611 3.605-3.992 0.799-8.104 1.199-12.332 1.199s-8.34-0.4-12.332-1.199c-3.927-0.787-7.749-1.967-11.461-3.541-0.055-0.02-0.109-0.041-0.163-0.064-3.701-1.592-7.192-3.484-10.469-5.684-3.267-2.191-6.291-4.678-9.066-7.461-2.784-2.775-5.27-5.801-7.462-9.066-2.199-3.277-4.091-6.77-5.683-10.469l4e-3 -2e-3 -4e-3 -0.01c-1.607-3.76-2.809-7.633-3.605-11.613-0.799-3.991-1.199-8.104-1.199-12.333 0-4.228 0.4-8.34 1.199-12.332 0.786-3.927 1.966-7.748 3.541-11.46 0.02-0.055 0.041-0.109 0.064-0.164 1.592-3.7 3.483-7.192 5.683-10.468 2.192-3.267 4.678-6.292 7.462-9.067 2.775-2.784 5.799-5.27 9.066-7.462 3.277-2.199 6.768-4.091 10.469-5.683l2e-3 4e-3 0.01-4e-3c3.76-1.606 7.632-2.808 11.612-3.604zm1.389 88.129v4.891h22.149v-4.891c-0.491-0.08-0.973-0.252-1.444-0.514-0.498-0.273-0.967-0.635-1.412-1.078-0.439-0.439-0.801-0.916-1.081-1.43-0.375-0.686-0.566-1.385-0.566-2.094v-28.866c0-0.659-0.04-1.153-0.12-1.482h-17.789v5.543c0.599 0.059 1.181 0.251 1.743 0.574l-5e-3 9e-3 5e-3 3e-3c0.423 0.244 0.832 0.564 1.224 0.96 0.065 0.06 0.13 0.123 0.191 0.19 0.426 0.465 0.762 0.928 1.001 1.389 0.345 0.662 0.521 1.338 0.521 2.027v19.654c0 0.619-0.14 1.227-0.414 1.822-0.032 0.078-0.068 0.156-0.108 0.232-0.246 0.473-0.588 0.938-1.022 1.398-0.441 0.469-0.907 0.844-1.401 1.125-0.481 0.274-0.97 0.454-1.472 0.538zm10.987-44.779c-1.631 0-3.141-0.245-4.533-0.735-1.441-0.509-2.722-1.273-3.844-2.296-0.053-0.047-0.103-0.097-0.151-0.147-1.085-1.014-1.903-2.184-2.457-3.508-0.571-1.365-0.854-2.86-0.854-4.48 0-1.616 0.283-3.119 0.855-4.501 0.585-1.416 1.453-2.654 2.607-3.708l0.06-0.053c1.098-1 2.355-1.754 3.772-2.264 1.407-0.507 2.922-0.759 4.545-0.759 1.662 0 3.194 0.249 4.599 0.747 1.453 0.516 2.741 1.292 3.864 2.329l1e-3 -1e-3c1.154 1.054 2.022 2.292 2.608 3.708 0.571 1.382 0.854 2.885 0.854 4.501 0 1.621-0.282 3.116-0.854 4.481-0.58 1.386-1.449 2.604-2.613 3.65l5e-3 5e-3c-1.12 1.021-2.412 1.786-3.877 2.296-1.411 0.491-2.939 0.735-4.587 0.735zm-2.555-6.342c0.731 0.258 1.583 0.387 2.556 0.387 1.014 0 1.892-0.128 2.633-0.387 0.688-0.239 1.298-0.601 1.829-1.085l5e-3 5e-3 0.019-0.017c0.489-0.438 0.854-0.947 1.097-1.526 0.26-0.622 0.389-1.356 0.389-2.201 0-0.865-0.129-1.614-0.39-2.245-0.24-0.582-0.613-1.105-1.119-1.567l2e-3 -1e-3 -0.025-0.022c-0.522-0.485-1.128-0.851-1.817-1.095-0.748-0.266-1.622-0.398-2.621-0.398-0.979 0-1.828 0.129-2.544 0.387-0.649 0.233-1.235 0.587-1.757 1.06-0.024 0.024-0.048 0.047-0.074 0.07-0.506 0.462-0.878 0.985-1.119 1.567-0.26 0.63-0.39 1.38-0.39 2.244 0 0.844 0.129 1.579 0.389 2.2 0.223 0.533 0.549 1.006 0.98 1.419 0.047 0.038 0.094 0.078 0.139 0.119 0.529 0.483 1.135 0.845 1.818 1.086z"/></svg>
